<svg width="18" height="20" viewBox="0 0 18 20"  xmlns="http://www.w3.org/2000/svg">
<path d="M16.993 7.5361L9.77573 0.318862C9.56988 0.113008 9.29525 0 8.99655 0C8.7037 0 8.42923 0.113008 8.22338 0.318862L1.00597 7.5361C0.579629 7.9626 0.579629 8.65675 1.00597 9.08293L1.66126 9.73854C1.86711 9.94423 2.14174 10.0574 2.43475 10.0574C2.7276 10.0574 3.01166 9.94423 3.21735 9.73854L7.4372 5.5278V18.9052C7.4372 19.5081 7.90939 20 8.51232 20H9.43915C10.0421 20 10.5621 19.5081 10.5621 18.9052V5.48032L14.8058 9.73854C15.0115 9.94423 15.2788 10.0574 15.5718 10.0574C15.8648 10.0574 16.1354 9.94423 16.3414 9.73854L16.9948 9.08293C17.4213 8.65659 17.4196 7.9626 16.993 7.5361Z" fill="black"/>
</svg>
