<svg width="18" height="20" viewBox="0 0 18 20" xmlns="http://www.w3.org/2000/svg">
<path d="M16.993 12.4639L9.77574 19.6811C9.56988 19.887 9.29525 20 8.99655 20C8.7037 20 8.42923 19.887 8.22338 19.6811L1.00597 12.4639C0.57963 12.0374 0.57963 11.3433 1.00597 10.9171L1.66126 10.2615C1.86711 10.0558 2.14175 9.9426 2.43475 9.9426C2.7276 9.9426 3.01166 10.0558 3.21736 10.2615L7.4372 14.4722V1.0948C7.4372 0.491871 7.90939 7.45058e-07 8.51232 7.45058e-07H9.43915C10.0421 7.45058e-07 10.5621 0.491871 10.5621 1.0948V14.5197L14.8058 10.2615C15.0115 10.0558 15.2788 9.9426 15.5718 9.9426C15.8648 9.9426 16.1354 10.0558 16.3414 10.2615L16.9948 10.9171C17.4213 11.3434 17.4196 12.0374 16.993 12.4639Z" fill="black"/>
</svg>
