<svg width="20" height="20" viewBox="0 0 20 20" fill="none" xmlns="http://www.w3.org/2000/svg">
<path d="M9.44159 0.00814056C9.18254 0.0241433 8.83948 0.0571494 8.68646 0.0791531C8.64845 0.0851541 8.59844 0.0921559 8.57644 0.0941563C8.55444 0.0971568 8.51143 0.103157 8.48142 0.108158C8.45142 0.113159 8.40841 0.120161 8.38641 0.123161C8.30039 0.136164 8.00134 0.192171 7.91133 0.213175C7.90333 0.215175 7.86232 0.223178 7.82131 0.23218C7.7623 0.244182 7.58527 0.288188 7.41124 0.332195C7.17921 0.392205 6.81414 0.507224 6.58611 0.593239C6.5481 0.608241 6.50509 0.623244 6.49109 0.627245C6.47709 0.632246 6.44408 0.644248 6.41608 0.65625C6.38907 0.667252 6.32806 0.691256 6.28105 0.709259C6.23405 0.727262 6.18504 0.748265 6.17104 0.755266C6.15703 0.762267 6.14303 0.768269 6.13903 0.768269C6.13303 0.768269 6.08102 0.790273 5.99601 0.828279C5.985 0.83328 5.93 0.858284 5.87399 0.882288C5.66095 0.977304 5.32889 1.14533 5.06585 1.29336C4.93183 1.36837 4.64678 1.5444 4.47875 1.65542C3.25455 2.46455 2.18337 3.58274 1.42824 4.83895C1.32322 5.01398 1.31222 5.03299 1.2152 5.20901C1.06018 5.49006 0.89315 5.83712 0.783131 6.10417C0.770129 6.13717 0.753126 6.17718 0.745125 6.19418C0.729122 6.23019 0.641108 6.45422 0.629106 6.48923C0.625105 6.50323 0.609102 6.54524 0.5951 6.58425C0.509085 6.81428 0.390065 7.19335 0.334056 7.40938C0.290049 7.58341 0.246041 7.76044 0.234039 7.81945C0.225038 7.86046 0.217036 7.90147 0.215036 7.90947C0.187031 8.02549 0.110018 8.46056 0.0960161 8.57458C0.0940158 8.59658 0.0870146 8.64559 0.0810136 8.6846C0.0690116 8.76761 0.0330055 9.11067 0.0250042 9.22469C0.00500084 9.49874 0 9.65576 0 9.99482C0 10.2039 0.00200034 10.4109 0.00500084 10.4549C0.0170029 10.6529 0.0220037 10.7279 0.0260044 10.775C0.0280047 10.802 0.0320054 10.854 0.0350059 10.89C0.0440074 11 0.0700118 11.241 0.0810136 11.315C0.0870146 11.353 0.0940158 11.4031 0.0960161 11.4251C0.112019 11.5561 0.185031 11.9662 0.216036 12.0952C0.219037 12.1062 0.225038 12.1362 0.230039 12.1612C0.29805 12.5042 0.490082 13.1503 0.630106 13.5104C0.642108 13.5404 0.664112 13.5994 0.680114 13.6404C0.719121 13.7444 0.727122 13.7645 0.750126 13.8145C0.761128 13.8395 0.770129 13.8615 0.770129 13.8645C0.770129 13.8695 0.795134 13.9275 0.830139 14.0055C0.83514 14.0165 0.859144 14.0705 0.884148 14.1255C0.908152 14.1805 0.962162 14.2955 1.00317 14.3806C1.70929 15.8268 2.74846 17.074 4.06068 18.0502C4.66578 18.5012 5.44891 18.9483 6.10603 19.2184C6.13903 19.2314 6.18004 19.2484 6.19604 19.2564C6.21304 19.2634 6.25805 19.2814 6.29606 19.2964C6.33506 19.3114 6.40608 19.3394 6.45408 19.3584C6.5551 19.3974 6.5821 19.4074 6.81114 19.4844C7.1282 19.5904 7.43825 19.6794 7.70629 19.7405C7.78331 19.7585 7.87332 19.7785 7.90633 19.7865C7.98334 19.8045 8.29439 19.8615 8.39141 19.8765C8.72246 19.9265 8.9045 19.9495 9.12653 19.9665C9.16554 19.9695 9.22355 19.9745 9.25655 19.9775C9.58461 20.0075 10.4187 20.0075 10.7468 19.9775C10.7798 19.9745 10.8388 19.9695 10.8768 19.9665C11.0989 19.9495 11.2809 19.9265 11.6119 19.8765C11.709 19.8615 12.02 19.8045 12.097 19.7865C12.13 19.7785 12.2201 19.7585 12.2971 19.7405C12.5651 19.6794 12.8752 19.5904 13.1922 19.4844C13.4213 19.4074 13.4483 19.3974 13.5493 19.3584C13.5973 19.3394 13.6693 19.3114 13.7073 19.2964C13.7463 19.2814 13.7913 19.2634 13.8073 19.2564C13.8243 19.2484 13.8643 19.2314 13.8973 19.2184C14.4194 19.0033 15.0145 18.6823 15.5426 18.3302C17.0579 17.319 18.2741 15.9148 19.0472 14.2815C19.1002 14.1705 19.1432 14.0775 19.1432 14.0755C19.1432 14.0715 19.1702 14.0105 19.2142 13.9135C19.2242 13.8895 19.2332 13.8675 19.2332 13.8635C19.2332 13.8585 19.2392 13.8445 19.2462 13.8305C19.2532 13.8165 19.2742 13.7675 19.2922 13.7204C19.3622 13.5384 19.3723 13.5134 19.3933 13.4554C19.4063 13.4224 19.4243 13.3754 19.4333 13.3504C19.4653 13.2694 19.5913 12.8693 19.6373 12.7053C19.6803 12.5522 19.7623 12.2202 19.7793 12.1352C19.7833 12.1132 19.7873 12.0902 19.7893 12.0852C19.8183 11.9641 19.8893 11.5631 19.9073 11.4251C19.9103 11.4031 19.9193 11.333 19.9273 11.27C19.9423 11.162 19.9574 11.015 19.9684 10.89C19.9704 10.86 19.9754 10.806 19.9784 10.7699C19.9964 10.5539 20.0034 10.3399 20.0034 9.99482C20.0024 9.64676 19.9984 9.49574 19.9784 9.22469C19.9704 9.10967 19.9343 8.76661 19.9223 8.6846C19.9163 8.64559 19.9093 8.59658 19.9073 8.57458C19.8933 8.46056 19.8163 8.02549 19.7883 7.90947C19.7863 7.90147 19.7783 7.86046 19.7693 7.81945C19.7573 7.76044 19.7133 7.58341 19.6693 7.40938C19.6153 7.19935 19.4923 6.80328 19.4293 6.63926C19.4223 6.62025 19.4063 6.57724 19.3933 6.54424C19.3813 6.51123 19.3612 6.45722 19.3482 6.42422C19.3352 6.39121 19.3132 6.3322 19.2982 6.2942C19.2832 6.25519 19.2652 6.21018 19.2582 6.19418C19.2502 6.17718 19.2332 6.13717 19.2202 6.10417C19.1022 5.81812 18.8382 5.27803 18.7361 5.117C18.7241 5.096 18.7131 5.07699 18.7131 5.07399C18.7131 5.06099 18.4591 4.64692 18.3461 4.47689C17.975 3.9158 17.578 3.43272 17.0739 2.92763C16.5688 2.42355 16.0857 2.02648 15.5246 1.65542C15.3546 1.5424 14.9405 1.28836 14.9275 1.28836C14.9245 1.28836 14.9055 1.27735 14.8845 1.26535C14.7235 1.16334 14.1834 0.899291 13.8973 0.781271C13.8643 0.768269 13.8243 0.751266 13.8073 0.743265C13.7913 0.736264 13.7463 0.718261 13.7073 0.703259C13.6693 0.688256 13.6103 0.666252 13.5773 0.65325C13.5443 0.640248 13.4903 0.620244 13.4573 0.608242C13.4243 0.59524 13.3812 0.579236 13.3622 0.572235C13.1982 0.509225 12.8021 0.386204 12.5921 0.332195C12.4181 0.288188 12.2411 0.244182 12.182 0.23218C12.141 0.223178 12.1 0.215175 12.092 0.213175C11.961 0.18317 11.5369 0.107158 11.4269 0.0941563C11.4049 0.0921559 11.3559 0.0851541 11.3169 0.0791531C11.2349 0.067151 10.8918 0.0311451 10.7768 0.0231438C10.5008 0.00314041 10.3517 -0.000860932 9.97668 0.000139236C9.74564 0.0011394 9.5046 0.00413989 9.44159 0.00814056ZM10.5918 0.972303C10.6108 0.974304 10.6678 0.979305 10.7168 0.982306C10.7958 0.988307 10.9048 0.998308 11.0369 1.01231C11.0779 1.01731 11.4309 1.06632 11.4669 1.07232C11.4779 1.07432 11.5029 1.07932 11.5219 1.08232C11.5409 1.08532 11.5679 1.09032 11.5819 1.09232C11.62 1.09932 11.914 1.15633 11.937 1.16233C12.097 1.19934 12.2681 1.24135 12.3121 1.25335C12.4871 1.30136 12.7601 1.38537 12.9172 1.43838C13.0162 1.47239 13.1082 1.50339 13.1222 1.50839C13.1362 1.51239 13.1612 1.5214 13.1772 1.5284C13.1942 1.5354 13.2162 1.5444 13.2272 1.5484C13.3152 1.58341 13.5893 1.69643 13.6403 1.71943C13.6753 1.73543 13.7063 1.74843 13.7083 1.74843C13.7113 1.74843 13.8063 1.79344 13.9193 1.84845C14.8555 2.30453 15.6636 2.87862 16.3928 3.60875C17.1229 4.33787 17.697 5.146 18.153 6.08216C18.2081 6.19518 18.2531 6.2902 18.2531 6.2932C18.2531 6.2952 18.2661 6.3262 18.2821 6.36121C18.3051 6.41122 18.4151 6.67726 18.4531 6.77428C18.4571 6.78528 18.4681 6.81228 18.4761 6.83429C18.5811 7.09833 18.7311 7.60742 18.8382 8.05949C18.8422 8.0745 18.8842 8.29053 18.8992 8.36454C18.9092 8.41755 18.9112 8.42756 18.9172 8.46956C18.9202 8.48857 18.9252 8.51557 18.9272 8.52957C18.9332 8.56058 18.9822 8.91064 18.9882 8.95965C18.9932 9.00265 19.0122 9.19769 19.0172 9.2597C19.0442 9.55975 19.0452 10.6289 19.0192 10.7119C19.0162 10.7189 19.0122 10.7679 19.0082 10.82C19.0052 10.872 19.0002 10.924 18.9982 10.935C18.9962 10.946 18.9922 10.982 18.9892 11.015C18.9842 11.076 18.9472 11.352 18.9392 11.3931C18.9362 11.4051 18.9322 11.4341 18.9292 11.4571C18.9262 11.4791 18.9222 11.5091 18.9192 11.5221C18.9162 11.5341 18.9112 11.5621 18.9082 11.5841C18.9052 11.6051 18.9012 11.6251 18.8992 11.6291C18.8962 11.6331 18.8922 11.6541 18.8892 11.6751C18.8872 11.6971 18.8782 11.7481 18.8692 11.7871C18.8602 11.8271 18.8512 11.8721 18.8482 11.8871C18.8242 12.0222 18.7021 12.4902 18.6461 12.6653C18.5581 12.9403 18.4241 13.3174 18.3831 13.4054C18.3781 13.4164 18.3441 13.4944 18.3081 13.5794C18.1881 13.8575 18.096 14.0495 17.965 14.2905C17.882 14.4416 17.733 14.7006 17.688 14.7706C17.4619 15.1207 17.3299 15.3097 17.1379 15.5578C17.0279 15.6988 17.0069 15.7208 17.0049 15.7008C16.9919 15.6088 16.9198 15.3237 16.8558 15.1107C16.8378 15.0477 16.8178 14.9787 16.8118 14.9587C16.7968 14.8996 16.6768 14.5686 16.6178 14.4256C16.4818 14.0925 16.3087 13.7515 16.1247 13.4454C15.5786 12.5432 14.8565 11.7871 13.9843 11.202C13.4733 10.86 12.9722 10.6089 12.3801 10.3999L12.2421 10.3509L12.16 10.3969C11.942 10.5179 11.5869 10.6689 11.3489 10.7409C11.2759 10.7629 11.1969 10.787 11.1719 10.795C11.1349 10.806 11.0729 10.821 10.9218 10.854C10.9138 10.856 10.8398 10.869 10.7568 10.883C10.4898 10.929 10.3107 10.943 10.0017 10.943C9.69263 10.943 9.5136 10.929 9.24655 10.883C9.16454 10.869 9.08953 10.856 9.08152 10.854C8.9315 10.821 8.86849 10.806 8.83148 10.795C8.80648 10.787 8.73247 10.7649 8.66646 10.7449C8.56444 10.7139 8.3534 10.6389 8.28639 10.6099C8.13137 10.5419 7.94533 10.4529 7.86332 10.4079L7.7603 10.3509L7.62328 10.3999C7.03118 10.6089 6.5301 10.86 6.01901 11.202C4.83881 11.9922 3.92466 13.1123 3.38557 14.4256C3.32656 14.5686 3.20654 14.8996 3.19154 14.9587C3.18553 14.9787 3.16553 15.0477 3.14753 15.1107C3.08352 15.3237 3.01151 15.6088 2.9985 15.7008C2.9965 15.7208 2.9755 15.6988 2.86548 15.5578C2.67245 15.3087 2.54643 15.1287 2.31539 14.7706C2.12736 14.4806 1.86931 13.9845 1.69528 13.5794C1.65928 13.4944 1.62527 13.4164 1.62027 13.4054C1.57927 13.3164 1.44224 12.9323 1.35723 12.6653C1.29622 12.4722 1.1812 12.0322 1.15519 11.8871C1.15219 11.8721 1.14319 11.8271 1.13419 11.7871C1.12519 11.7481 1.11619 11.6971 1.11419 11.6751C1.11119 11.6541 1.10719 11.6331 1.10419 11.6291C1.10219 11.6251 1.09818 11.6051 1.09518 11.5841C1.09218 11.5621 1.08718 11.5341 1.08418 11.5221C1.08118 11.5091 1.07718 11.4791 1.07418 11.4571C1.07118 11.4341 1.06718 11.4051 1.06418 11.3931C1.05318 11.339 1.01517 11.049 1.00517 10.93C1.00117 10.889 0.996167 10.848 0.995167 10.84C0.994167 10.832 0.989166 10.775 0.985165 10.7149C0.980165 10.6539 0.976164 10.5939 0.974164 10.5799C0.972163 10.5659 0.968163 10.3819 0.964162 10.1698C0.958161 9.83179 0.967162 9.43272 0.985165 9.2607C0.987166 9.24069 0.994167 9.17268 1.00017 9.10967C1.01317 8.96565 1.05718 8.63159 1.07618 8.52957C1.07818 8.51557 1.08318 8.48857 1.08618 8.46956C1.09218 8.42756 1.09418 8.41755 1.10419 8.36454C1.11819 8.29253 1.16119 8.0745 1.1652 8.05949C1.2032 7.89747 1.24321 7.73244 1.25521 7.68943C1.30322 7.5144 1.38723 7.24136 1.44024 7.08433C1.47425 6.98531 1.50525 6.8933 1.51025 6.8793C1.51425 6.86529 1.52326 6.84029 1.53026 6.82429C1.53726 6.80728 1.54626 6.78528 1.55026 6.77428C1.58527 6.68626 1.69829 6.41222 1.72129 6.36121C1.73729 6.3262 1.75029 6.2952 1.75029 6.2932C1.75029 6.2902 1.7953 6.19518 1.85031 6.08216C2.30639 5.146 2.88048 4.33787 3.61061 3.60875C4.33973 2.87862 5.14786 2.30453 6.08402 1.84845C6.19704 1.79344 6.29206 1.74843 6.29506 1.74843C6.29706 1.74843 6.32806 1.73543 6.36307 1.71943C6.41308 1.69643 6.67912 1.58641 6.77614 1.5484C7.02218 1.45238 7.28922 1.36537 7.69129 1.25335C7.7353 1.24135 7.90033 1.20134 8.06635 1.16233C8.08936 1.15633 8.38341 1.09932 8.42141 1.09232C8.43542 1.09032 8.46242 1.08532 8.48142 1.08232C8.50043 1.07932 8.52543 1.07432 8.53643 1.07232C8.56644 1.06732 8.9205 1.01831 8.9615 1.01331C8.98051 1.01131 9.04852 1.00431 9.11153 0.998308C9.17454 0.992307 9.24255 0.985305 9.26155 0.983305C9.28056 0.981305 9.37057 0.976304 9.46159 0.972303C9.5526 0.969303 9.62862 0.963302 9.63162 0.961302C9.63762 0.955301 10.5368 0.966302 10.5918 0.972303Z" fill="black"/>
<path d="M9.82165 2.85462C9.64962 2.86762 9.5156 2.88163 9.44658 2.89463C9.40258 2.90163 9.35357 2.91063 9.33657 2.91363C9.32056 2.91663 9.29556 2.92163 9.28156 2.92463C9.26755 2.92763 9.24555 2.93263 9.23255 2.93463C9.08953 2.96164 8.79848 3.05365 8.61745 3.12967C7.67229 3.52673 6.93416 4.32387 6.60811 5.29903C6.5491 5.47406 6.48909 5.7251 6.46709 5.88413C6.41308 6.26319 6.41308 6.64026 6.46609 6.95931C6.46809 6.97331 6.47309 7.00432 6.47609 7.02932C6.47909 7.05433 6.49309 7.12334 6.50709 7.18435C6.52109 7.24436 6.5351 7.30737 6.5371 7.32337C6.5401 7.33937 6.5471 7.36438 6.5531 7.37838C6.5581 7.39238 6.5651 7.41339 6.5671 7.42539C6.5751 7.4674 6.64412 7.66743 6.68712 7.77245C6.94317 8.39855 7.37624 8.94664 7.92633 9.33871C7.98934 9.38372 8.09136 9.45073 8.15337 9.48873C8.27739 9.56275 8.53743 9.69577 8.61645 9.72477C8.64445 9.73478 8.67146 9.74678 8.67646 9.75078C8.71546 9.77878 9.17354 9.91581 9.29156 9.93381C9.34157 9.94181 9.38457 9.94981 9.40158 9.95481C9.40958 9.95681 9.44358 9.96181 9.47659 9.96581C9.5096 9.96881 9.5386 9.97382 9.5416 9.97482C9.58561 10.0008 10.4177 10.0008 10.4618 9.97482C10.4648 9.97382 10.4938 9.96881 10.5268 9.96581C10.5598 9.96181 10.5938 9.95681 10.6018 9.95481C10.6188 9.94981 10.6618 9.94181 10.7118 9.93381C10.8358 9.91481 11.2119 9.80179 11.3259 9.74978C11.3489 9.73978 11.3959 9.71977 11.4319 9.70477C11.4679 9.68977 11.5509 9.65076 11.6169 9.61676C12.4581 9.19068 13.1032 8.44256 13.3972 7.55241C13.4173 7.4914 13.4353 7.43439 13.4363 7.42739C13.4373 7.42039 13.4433 7.39838 13.4503 7.37938C13.4563 7.36038 13.4633 7.33337 13.4663 7.31937C13.4693 7.30537 13.4823 7.24436 13.4963 7.18435C13.5103 7.12334 13.5243 7.05433 13.5273 7.02932C13.5303 7.00432 13.5353 6.97331 13.5373 6.95931C13.5903 6.64126 13.5893 6.26219 13.5363 5.88413C13.5093 5.6881 13.4353 5.40305 13.3582 5.19401C12.9832 4.17584 12.157 3.37571 11.1319 3.03565C11.0128 2.99564 10.8408 2.94864 10.7708 2.93463C10.7578 2.93263 10.7358 2.92763 10.7218 2.92463C10.7078 2.92163 10.6838 2.91663 10.6668 2.91363C10.5038 2.88563 10.4528 2.87762 10.3617 2.86862C10.2537 2.85762 9.90266 2.84862 9.82165 2.85462Z" fill="black"/>
</svg>
