<svg width="14" height="20" viewBox="0 0 14 20" fill="none" xmlns="http://www.w3.org/2000/svg">
<path d="M5.23964 10.0145H6.41321V9.11475H7.92582V5.59404H4.9006V4.42046H7.92582V3.24689H6.41321V2.34716H5.23964V3.24689H3.72703V6.76761H6.75225V7.94118H3.72703V9.11475H5.23964V10.0145Z" fill="black"/>
<path d="M13.657 1.76036C13.657 0.789701 12.8673 5.72205e-06 11.8966 5.72205e-06H2.10339C1.13273 5.72205e-06 0.343035 0.789701 0.343035 1.76036V20L2.56202 18.4045L4.19426 19.5781L5.82647 18.4045L7.45867 19.5781L9.09091 18.4045L11.3099 20V5.44811L13.657 6.62168V1.76036H13.657ZM10.1362 1.76036V17.7107L9.09083 16.9591L7.45859 18.1327L5.82639 16.9591L4.19418 18.1327L2.56194 16.9591L1.51653 17.7107V1.76036C1.51653 1.43681 1.77976 1.17358 2.10331 1.17358H10.2367C10.1717 1.35716 10.1362 1.55471 10.1362 1.76036ZM12.4834 4.7228L11.3098 4.13602V1.76036C11.3098 1.43681 11.573 1.17358 11.8966 1.17358C12.2202 1.17358 12.4834 1.43681 12.4834 1.76036V4.7228Z" fill="black"/>
<path d="M2.69018 11.1881H8.96267V12.3617H2.69018V11.1881Z" fill="black"/>
<path d="M3.51841 13.5352H8.13445V14.7088H3.51841V13.5352Z" fill="black"/>
</svg>
