<svg viewBox="0 0 19 20" xmlns="http://www.w3.org/2000/svg">
<path d="M5.37565 2.95663C3.51357 3.23594 2.18683 4.16699 1.58165 5.64502C1.36053 6.20364 1.37217 7.9028 1.61657 8.44979C1.72131 8.68255 1.98898 9.08988 2.22174 9.34592C2.6989 9.86963 2.73382 10.0209 2.40795 10.1257C2.05881 10.2304 1.48855 10.7425 1.30234 11.1265C1.03466 11.6386 1.08122 12.6395 1.39544 13.105C1.86096 13.7916 2.33812 13.8964 5.20108 13.908C8.15714 13.9197 8.72741 14.036 9.07655 14.7227C9.33259 15.2115 9.26276 16.0378 8.94853 16.3869C8.48301 16.899 8.12223 16.9921 6.53946 16.9921C5.35238 16.9921 4.95668 16.9456 4.67737 16.8059C4.18857 16.5266 3.90926 16.1891 3.81615 15.7468L3.73469 15.3628H2.34976H0.953197L0.918283 15.9214C0.836816 17.2132 1.70967 18.3072 3.24589 18.8076C4.02564 19.0637 4.28168 19.087 6.3067 19.087C8.26189 19.087 8.62267 19.052 9.42569 18.8193C11.2412 18.2956 12.149 17.4111 12.4283 15.8981C12.6029 14.8623 12.4399 14.1175 11.8697 13.4425C10.9619 12.3834 9.67009 12.0459 6.4929 12.0459C4.52608 12.0459 4.28168 12.0227 4.11874 11.8365C3.85107 11.5455 3.87435 11.3127 4.1653 11.0451C4.37478 10.8589 4.67737 10.8123 6.12049 10.7425C8.06404 10.661 8.49465 10.5795 9.44897 10.1373C10.3218 9.74161 10.9619 9.13643 11.3227 8.37996C11.6835 7.61185 11.7067 6.19201 11.3809 5.44717C10.9037 4.39975 9.90285 3.60836 8.51792 3.16612C7.83128 2.94499 6.19032 2.84025 5.37565 2.95663ZM7.58688 5.19114C8.75068 5.72649 8.90198 7.51874 7.85456 8.35668C7.49378 8.64763 7.29593 8.70582 6.63256 8.75238C5.43384 8.83384 4.70065 8.34504 4.54935 7.36745C4.35151 6.18037 4.85194 5.26096 5.84117 5.00493C6.50454 4.83036 6.92351 4.87691 7.58688 5.19114Z" />
<rect x="17.4286" y="5.14286" width="0.857143" height="0.857143" />
<rect x="17.4286" y="3.42857" width="0.857143" height="0.857143" />
<rect x="17.4286" y="1.71429" width="0.857143" height="0.857143" />
<rect x="17.4286" width="0.857143" height="0.857143" />
<rect x="14" y="5.14286" width="0.857143" height="0.857143" />
<rect x="14" y="3.42857" width="0.857143" height="0.857143" />
<rect x="14" y="1.71429" width="0.857143" height="0.857143" />
<rect x="14" width="0.857143" height="0.857143" />
<rect x="15.7143" y="5.14286" width="0.857143" height="0.857143" />
<rect x="15.7143" y="3.42857" width="0.857143" height="0.857143" />
<rect x="15.7143" y="1.71429" width="0.857143" height="0.857143" />
<rect x="15.7143" width="0.857143" height="0.857143" />
</svg>
