<svg viewBox="0 0 23 22" xmlns="http://www.w3.org/2000/svg">
    <path d="M8 11C10.2057 11 12 9.20571 12 7C12 4.79429 10.2057 3 8 3C5.79429 3 4 4.79429 4 7C4 9.20571 5.79429 11 8 11ZM8 5.28571C8.94857 5.28571 9.71429 6.05143 9.71429 7C9.71429 7.94857 8.94857 8.71429 8 8.71429C7.05143 8.71429 6.28571 7.94857 6.28571 7C6.28571 6.05143 7.05143 5.28571 8 5.28571ZM3.16571 16.7143H8.05714C8.02286 16.8971 8 17.0914 8 17.2857V19H0V17.2857C0 14.6229 5.32571 13.2857 8 13.2857C8.64 13.2857 9.42857 13.3657 10.2629 13.5143C9.45143 14.0629 8.77714 14.7486 8.38857 15.5829C8.32571 15.5829 8.26 15.58 8.19428 15.5771C8.12857 15.5743 8.06286 15.5714 8 15.5714C6.25143 15.5714 4.29714 16.1429 3.16571 16.7143ZM16.5714 13.8571C14.4686 13.8571 10.2857 15.0114 10.2857 17.2857V19H22.8571V17.2857C22.8571 15.0114 18.6743 13.8571 16.5714 13.8571ZM19.4286 9.28571C19.4286 10.36 18.8229 11.2857 17.9543 11.7771C17.5429 12.0057 17.0743 12.1429 16.5714 12.1429C16.0686 12.1429 15.6 12.0057 15.1886 11.7771C14.32 11.2857 13.7143 10.36 13.7143 9.28571C13.7143 7.70857 14.9943 6.42857 16.5714 6.42857C18.1486 6.42857 19.4286 7.70857 19.4286 9.28571Z" />
</svg>
