<svg viewBox="0 0 21 20" xmlns="http://www.w3.org/2000/svg">
    <path fill-rule="evenodd" clip-rule="evenodd" d="M9.13242 0H10.9589V2.69406H9.13242V0ZM3.61644 2.2831L5.26027 3.91781L3.96347 5.20548L2.32877 3.57078L3.61644 2.2831ZM2.73973 9.08676H0V10.9132H2.73973V9.08676ZM17.7604 3.56347L16.4752 2.27854L14.8415 3.91224L16.1266 5.19726L17.7604 3.56347ZM14.8311 16.0822L16.4658 17.726L17.7534 16.4384L16.1096 14.8037L14.8311 16.0822ZM20.0913 9.08676H17.3516V10.9132H20.0913V9.08676ZM10.0457 4.52055C7.02283 4.52055 4.56621 6.97717 4.56621 10C4.56621 13.0228 7.02283 15.4795 10.0457 15.4795C13.0685 15.4795 15.5251 13.0228 15.5251 10C15.5251 6.97717 13.0685 4.52055 10.0457 4.52055ZM6.3927 10C6.3927 12.0183 8.0274 13.653 10.0457 13.653C12.0639 13.653 13.6986 12.0183 13.6986 10C13.6986 7.98173 12.0639 6.34703 10.0457 6.34703C8.0274 6.34703 6.3927 7.98173 6.3927 10ZM9.13242 17.3059H10.9589V20H9.13242V17.3059ZM3.61644 17.7169L2.32877 16.4292L3.96347 14.7854L5.25114 16.0731L3.61644 17.7169Z" />
</svg>
